<?xml version="1.0" encoding="utf-8"?>
<!-- Generator: Adobe Illustrator 17.1.0, SVG Export Plug-In . SVG Version: 6.00 Build 0)  -->
<!DOCTYPE svg PUBLIC "-//W3C//DTD SVG 1.1//EN" "http://www.w3.org/Graphics/SVG/1.1/DTD/svg11.dtd">
<svg version="1.1" id="Layer_1" xmlns="http://www.w3.org/2000/svg" xmlns:xlink="http://www.w3.org/1999/xlink" x="0px" y="0px"
	 viewBox="0 0 612 792" enable-background="new 0 0 612 792" xml:space="preserve">
<g>
	<path fill="#FFFFFF" d="M494,521.6l-68.2-75.1v-46.1H146.5V475l-49.1-21.1c-14.4-6.2-32.2,3.1-39.9,20.9l-3.5,8
		c-7.6,17.7-2.1,37.1,12.2,43.3l80.2,34.5v156h0l0,24.5c0,15.7,15.6,28.4,34.9,28.4l8.7,0c19.3,0,34.9-12.7,34.9-28.3l0-24.6h122.7
		l0,24.5c0,15.7,15.6,28.4,34.9,28.4l8.7,0c19.3,0,34.9-12.7,34.9-28.3l0.1-124.3c0-1.7-0.2-3.3-0.6-4.9v-48.5l10,11.1
		c10.5,11.6,30.6,10.5,44.9-2.5l6.5-5.9C501.5,553.1,504.5,533.2,494,521.6z"/>
	<path fill="#F7F7F7" stroke="#000000" stroke-miterlimit="10" d="M468.4,690.7"/>
	<path fill="none" stroke="#ED2020" stroke-miterlimit="10" d="M146.5,731.2"/>
	<polygon fill="#009BDE" points="425.2,649.1 422.3,656.1 419.9,659.5 415.7,663.9 411,667.1 404.6,669.6 397.2,670.6 391.6,670 
		385.8,668.2 379.7,664.7 374.9,660.1 370.9,653.8 369.3,649.1 368.2,641.6 368.2,605 367.4,596.6 366,590.9 363.5,584.8 
		361.4,580.9 356.5,574.5 353,571.1 353,477.1 321.1,477.1 321.1,559.9 252.3,559.9 252.3,477.1 220.4,477.1 220.4,570.3 
		220.2,570.5 217.1,573.4 212.9,578.5 209.9,583.4 207.6,588.2 206.1,593 204.8,597.5 204.4,600.8 204.4,641.6 204.2,645.5 
		203.5,649.1 200.6,656.1 197.9,659.9 192.8,664.8 187.8,667.8 181.8,669.9 175.5,670.6 167.9,669.5 161.9,667.2 156,663 
		152.4,659.1 150.4,656.1 147.5,649.1 146.5,641.6 146.5,644.1 146.5,731.2 225,731.2 225.1,716.5 347.7,716.5 347.7,731.2 
		426.2,731.2 426.2,641.6 	"/>
	<polygon fill="#F7F7F7" stroke="#F42A2A" stroke-miterlimit="10" points="836.8,529.8 836.8,529.8 836.8,529.8 836.8,529.8 
		836.8,529.8 836.8,529.8 836.8,529.8 836.8,529.8 	"/>
	<path fill="#F4971E" d="M389.5,539.4c0,1.7-1.4,3.1-3.1,3.1l0,0c-1.7,0-3.1-1.4-3.1-3.1v-23.6c0-1.7,1.4-3.1,3.1-3.1l0,0
		c1.7,0,3.1,1.4,3.1,3.1V539.4z"/>
	<path fill="#F4971E" d="M379.5,535.7c0,1.7-1.4,3.1-3.1,3.1l0,0c-1.7,0-3.1-1.4-3.1-3.1v-23.6c0-1.7,1.4-3.1,3.1-3.1l0,0
		c1.7,0,3.1,1.4,3.1,3.1V535.7z"/>
	<line fill="#FFFFFF" stroke="#009BDE" stroke-miterlimit="10" x1="408.5" y1="519" x2="408.5" y2="527.3"/>
	<line fill="#FFFFFF" stroke="#009BDE" stroke-miterlimit="10" x1="366.2" y1="519" x2="366.2" y2="527.3"/>
	<path fill="#009BDE" d="M366.2,527.3v8c0,11.7,9.5,21.2,21.2,21.2s21.2-9.5,21.2-21.2v-8H366.2z"/>
	<path fill="none" stroke="#000000" stroke-miterlimit="10" d="M91.6,536.8"/>
	<path fill="none" stroke="#000000" stroke-miterlimit="10" d="M120.5,463.8"/>
	<path fill="none" stroke="#000000" stroke-miterlimit="10" d="M425.8,571.2"/>
	<path fill="none" stroke="#000000" stroke-miterlimit="10" d="M474.7,500.3"/>
	<circle fill="#F9E1CD" cx="279.2" cy="295.9" r="206.1"/>
	<path fill="#009BDE" d="M424.8,52c0-24.2-18.4-43.9-41.1-43.9H167.1c-22.7,0-41.1,19.6-41.1,43.9l-16.9,128.6
		c0,22.3,15.5,40.6,35.6,43.5c19.6-14.7,71.8-25.2,133.2-25.2c60.3,0,111.7,10.2,132.1,24.5c18.1-4.6,31.6-21.9,31.6-42.7L424.8,52z
		"/>
	<path opacity="0.15" fill="#F7F9F9" d="M387,59.8c0-16.1-14-29.1-31.2-29.1H190.9c-17.3,0-31.2,13-31.2,29.1l-12.8,85.3
		c0,14.8,11.8,26.9,27.1,28.8c14.9-9.8,54.7-16.7,101.4-16.7c45.9,0,85,6.7,100.6,16.2c13.8-3,24-14.5,24-28.3L387,59.8z"/>
	<path fill="#32C5F9" d="M415.6,211.2c-5.5,12-66-28.1-144.2-28.1s-131.2,40.9-138.8,28.1c-15.1-25.8,63.3-54.1,141.5-54.1
		S428,184,415.6,211.2z"/>
	<path fill="#75460D" d="M282.7,360.4l4.6-2.2c11.9-6.6,38.5,8.7,38.5,8.7c32.1,21.8,70.7,13.7,70.7,13.7c13.8,0.5,32.1-5,32.1-5
		c-49.6,51.4-94.5,40.4-94.5,40.4c-23.9-1.1-51.4-20.7-51.4-20.7C270.8,377.9,282.7,360.4,282.7,360.4z"/>
	<path fill="#75460D" d="M274.4,360.4l-4.6-2.2c-11.9-6.6-38.5,8.7-38.5,8.7c-32.1,21.8-70.7,13.7-70.7,13.7
		c-13.8,0.5-32.1-5-32.1-5C178,427,223,416.1,223,416.1c23.9-1.1,51.4-20.7,51.4-20.7C286.3,377.9,274.4,360.4,274.4,360.4z"/>
	<path fill="#FFFFFF" d="M207.7,92.2h5.6v20.5h25.5V92.2h6.1v46.9h-6.1v-20.6h-25.5v20.6h-6.1V92.2H207.7 M333.1,110.4h-6.6V105h6.6
		v-8.3h6v8.3h7v5.4h-7c0,5.5,0,13.2,0,18.7c0,1,0.1,1.8,0.4,2.5c0.2,0.6,0.6,1.2,1,1.5c0.4,0.3,0.9,0.6,1.5,0.8
		c0.6,0.2,1.2,0.3,1.9,0.3l0.4,0v5.5l-0.4,0c-0.3,0-0.5,0-0.7,0c-0.7,0-1.4,0-2-0.1v0c-0.7-0.1-1.3-0.2-1.9-0.4
		c-0.6-0.2-1.2-0.4-1.7-0.7c-0.5-0.3-1-0.6-1.5-1c-0.5-0.4-0.9-0.9-1.2-1.4c-0.4-0.5-0.7-1.1-0.9-1.7c-0.2-0.6-0.4-1.3-0.6-2.1
		c-0.1-0.8-0.2-1.6-0.2-2.4C333.1,124,333.1,116.1,333.1,110.4z M275.2,119.3c-0.1-0.6-0.2-1.1-0.3-1.7c-0.2-0.7-0.4-1.4-0.6-2.1
		c-0.3-0.7-0.6-1.3-0.9-1.9c-0.3-0.6-0.7-1.1-1.2-1.6c-0.4-0.5-0.9-0.9-1.4-1.3c-0.5-0.4-1.1-0.7-1.7-1c-0.6-0.3-1.3-0.5-2-0.7
		c-0.7-0.1-1.5-0.2-2.3-0.2c-1.4,0-2.7,0.3-3.9,0.8c-0.6,0.3-1.2,0.6-1.7,1c-0.5,0.4-1,0.8-1.5,1.3h0c-0.5,0.5-0.9,1-1.3,1.6
		c-0.4,0.6-0.7,1.2-1,1.9c-0.3,0.7-0.6,1.4-0.8,2.1c-0.2,0.6-0.3,1.2-0.4,1.8H275.2z M254.4,124.3c0.1,0.7,0.2,1.3,0.4,2
		c0.2,0.8,0.5,1.5,0.8,2.2c0.3,0.7,0.7,1.3,1.1,1.9c0.4,0.6,0.9,1.1,1.4,1.5c0.5,0.5,1.1,0.9,1.7,1.2c0.6,0.3,1.2,0.6,1.9,0.9v0
		c0.6,0.2,1.3,0.4,2,0.5c0.7,0.1,1.4,0.2,2.1,0.2c1.1,0,2.2-0.1,3.2-0.3c1-0.2,1.9-0.5,2.7-0.9c1.6-0.9,3.1-2,4.5-3.4l0.3-0.3
		l0.3,0.3l3.1,2.8l0.3,0.3l-0.3,0.3c-0.9,1-1.8,1.9-2.8,2.6h0c-1,0.8-2,1.5-3.2,2.1c-1.1,0.6-2.4,1-3.8,1.3
		c-1.4,0.3-2.9,0.4-4.5,0.4c-2.4,0-4.6-0.4-6.7-1.3c-1.1-0.4-2-1-3-1.6c-0.9-0.6-1.8-1.3-2.6-2.1c-0.8-0.8-1.5-1.7-2.1-2.6
		c-0.6-1-1.2-2-1.6-3.1c-0.5-1.1-0.8-2.3-1-3.5c-0.2-1.2-0.3-2.5-0.3-3.8c0-2.5,0.4-4.8,1.2-7.1c0.4-1.1,0.9-2.1,1.5-3.1
		c0.6-1,1.2-1.9,2-2.7c0.7-0.8,1.6-1.6,2.4-2.2c0.9-0.6,1.8-1.2,2.9-1.7c1-0.5,2.1-0.8,3.2-1.1c1.1-0.2,2.3-0.4,3.5-0.4
		c2.6,0,4.8,0.5,6.9,1.5c1,0.5,1.9,1.1,2.8,1.7c0.9,0.7,1.6,1.4,2.3,2.2c0.7,0.8,1.3,1.7,1.8,2.7c0.5,1,1,2,1.3,3.1
		c0.4,1.1,0.6,2.3,0.8,3.5c0.2,1.2,0.3,2.4,0.3,3.7v0.8c0,0.1,0,0.3,0,0.5c0,0.2,0,0.4,0,0.6l0,0.4H254.4z M297.8,134.9
		c0.8,0,1.5-0.1,2.2-0.2c0.7-0.1,1.4-0.3,2-0.5c0.7-0.2,1.3-0.5,1.8-0.8c0.6-0.3,1.1-0.6,1.6-1c0.5-0.4,0.9-0.8,1.3-1.3h0
		c0.4-0.5,0.7-0.9,1-1.5c0.3-0.5,0.5-1.1,0.6-1.7c0.1-0.6,0.2-1.2,0.2-1.8v-2.8c-0.5-0.1-1.1-0.3-1.7-0.4c-0.7-0.2-1.5-0.3-2.3-0.5
		c-0.8-0.1-1.6-0.3-2.6-0.3c-0.9-0.1-1.9-0.1-2.9-0.1c-1.5,0-2.9,0.1-4.1,0.4c-1.2,0.3-2.2,0.7-3,1.3c-0.8,0.6-1.4,1.2-1.8,2
		c-0.4,0.8-0.6,1.6-0.6,2.6v0.1c0,0.5,0.1,1,0.2,1.4c0.1,0.4,0.3,0.9,0.5,1.2c0.2,0.4,0.5,0.8,0.8,1.1c0.3,0.3,0.6,0.6,1,0.9
		c0.4,0.3,0.8,0.5,1.2,0.7c0.4,0.2,0.9,0.4,1.4,0.5c0.5,0.1,1,0.3,1.5,0.3C296.7,134.8,297.2,134.9,297.8,134.9z M296.8,139.8
		c-0.8,0-1.6-0.1-2.4-0.2c-0.8-0.1-1.6-0.3-2.4-0.5c-0.8-0.2-1.5-0.5-2.2-0.9c-0.7-0.3-1.4-0.8-2-1.2c-0.6-0.5-1.2-1-1.7-1.6
		c-0.5-0.6-0.9-1.2-1.3-1.9c-0.4-0.7-0.7-1.4-0.9-2.2c-0.2-0.8-0.3-1.7-0.3-2.6v-0.1c0-1,0.1-1.8,0.3-2.7c0.2-0.8,0.5-1.6,0.8-2.3
		c0.4-0.7,0.8-1.4,1.3-2c0.5-0.6,1.1-1.1,1.8-1.6c0.7-0.5,1.4-0.9,2.2-1.3c0.8-0.4,1.6-0.7,2.5-0.9c0.9-0.2,1.9-0.4,2.9-0.6
		c1-0.1,2-0.2,3.1-0.2c1.1,0,2.1,0,3.1,0.1c1,0.1,1.8,0.2,2.7,0.3c0.8,0.1,1.6,0.3,2.4,0.5v0c0.6,0.1,1.2,0.3,1.8,0.4v-0.4
		c0-1.4-0.2-2.7-0.6-3.8c-0.4-1.1-1-2-1.8-2.7c-0.8-0.7-1.8-1.3-3-1.6c-1.2-0.4-2.6-0.6-4.1-0.6c-1,0-1.9,0.1-2.8,0.2
		c-0.9,0.1-1.7,0.3-2.5,0.5c-0.8,0.2-1.6,0.5-2.4,0.8c-0.8,0.3-1.6,0.6-2.3,1l-0.5,0.2l-0.2-0.5l-1.5-4.1l-0.1-0.4l0.4-0.2
		c1-0.4,1.9-0.8,2.9-1.2c1-0.4,1.9-0.7,2.9-0.9c1-0.3,2-0.5,3.2-0.6c1.1-0.1,2.3-0.2,3.6-0.2c2.4,0,4.6,0.3,6.5,1
		c1.9,0.6,3.5,1.6,4.8,2.9c1.2,1.2,2.1,2.7,2.8,4.4c0.6,1.7,0.9,3.7,0.9,5.8v21.1h-5.9v-4.2c-0.4,0.4-0.8,0.8-1.3,1.2
		c-0.8,0.7-1.7,1.3-2.7,1.9c-1,0.6-2.2,1.1-3.5,1.3C299.7,139.7,298.3,139.8,296.8,139.8z M318.9,92.2h5.5v46.9h-6V92.2H318.9z
		 M348.9,92.2h5.5v17c0.4-0.5,0.8-0.9,1.2-1.4c0.8-0.8,1.6-1.5,2.6-2.2c1-0.7,2.1-1.2,3.3-1.5c1.2-0.3,2.6-0.5,4.1-0.5
		c1,0,2,0.1,3,0.3c0.9,0.2,1.8,0.4,2.7,0.8c0.8,0.3,1.6,0.7,2.3,1.2c0.7,0.5,1.4,1,1.9,1.7c0.6,0.6,1.1,1.3,1.5,2.1h0
		c0.4,0.7,0.8,1.5,1.1,2.4c0.3,0.8,0.5,1.8,0.7,2.7c0.2,0.9,0.2,1.9,0.2,2.9v21.5h-6v-20.2c0-1.5-0.2-2.9-0.6-4.1
		c-0.4-1.2-1-2.2-1.7-3.1c-0.8-0.9-1.7-1.5-2.8-1.9c-1.1-0.4-2.4-0.7-3.8-0.7c-0.7,0-1.4,0.1-2,0.2c-0.6,0.1-1.3,0.3-1.9,0.5
		c-0.6,0.2-1.1,0.5-1.7,0.9c-0.5,0.3-1,0.7-1.4,1.2c-0.4,0.4-0.8,0.9-1.2,1.5c-0.3,0.5-0.6,1.1-0.9,1.7c-0.2,0.6-0.4,1.3-0.5,2
		c-0.1,0.7-0.2,1.4-0.2,2.2v19.8h-6V92.2H348.9z"/>
	<path fill="#FFFFFF" d="M203,114.9c-0.4-1.1-0.8-2.2-1.3-3.1c-0.5-1-1.1-1.9-1.8-2.7c-0.7-0.8-1.5-1.6-2.3-2.2
		c-0.9-0.7-1.8-1.2-2.8-1.7c-2-1-4.3-1.5-6.9-1.5c-1.2,0-2.4,0.1-3.5,0.4c-1.1,0.2-2.2,0.6-3.2,1.1c-1,0.5-2,1-2.9,1.7
		c-0.9,0.6-1.7,1.4-2.4,2.2c-0.7,0.8-1.4,1.7-2,2.7c-0.6,1-1.1,2-1.5,3.1c-0.8,2.2-1.2,4.6-1.2,7.1c0,1.3,0.1,2.6,0.3,3.8
		c0.2,1.2,0.6,2.4,1,3.5c0.5,1.1,1,2.2,1.6,3.1c0.6,1,1.3,1.8,2.1,2.6c0.8,0.8,1.6,1.5,2.6,2.1c0.9,0.6,1.9,1.1,3,1.6
		c2.1,0.9,4.3,1.3,6.7,1.3c1.6,0,3.2-0.1,4.5-0.4c1.4-0.3,2.7-0.7,3.8-1.3c1.1-0.6,2.2-1.3,3.2-2.1h0c1-0.8,1.9-1.7,2.8-2.6l0.3-0.3
		l-0.3-0.3l-3.1-2.8l-0.3-0.3l-0.3,0.3c-1.4,1.4-2.9,2.5-4.5,3.4c-0.8,0.4-1.7,0.7-2.7,0.9c-1,0.2-2,0.3-3.2,0.3
		c-0.7,0-1.4-0.1-2.1-0.2c-0.7-0.1-1.4-0.3-2-0.5v0c-0.7-0.2-1.3-0.5-1.9-0.9c-0.6-0.4-1.1-0.8-1.7-1.2c-0.5-0.5-1-1-1.4-1.5
		c-0.4-0.6-0.8-1.2-1.1-1.9c-0.3-0.7-0.6-1.4-0.8-2.2c-0.2-0.6-0.3-1.3-0.4-2h26.7l0-0.4c0-0.2,0-0.4,0-0.6c0-0.2,0-0.4,0-0.5V122
		c0-1.3-0.1-2.5-0.3-3.7C203.6,117.2,203.4,116,203,114.9 M177.2,119.3c0.1-0.6,0.2-1.2,0.4-1.8c0.2-0.7,0.4-1.4,0.8-2.1
		c0.3-0.7,0.7-1.3,1-1.9c0.4-0.6,0.8-1.1,1.3-1.6h0c0.5-0.5,1-0.9,1.5-1.3c0.5-0.4,1.1-0.7,1.7-1c1.2-0.5,2.5-0.8,3.9-0.8
		c0.8,0,1.6,0.1,2.3,0.2c0.7,0.1,1.4,0.4,2,0.7c0.6,0.3,1.2,0.6,1.7,1c0.5,0.4,1,0.8,1.4,1.3c0.4,0.5,0.8,1,1.2,1.6
		c0.3,0.6,0.6,1.2,0.9,1.9c0.3,0.7,0.5,1.4,0.6,2.1c0.1,0.5,0.2,1.1,0.3,1.7H177.2z"/>
	<circle fill="#FFFFFF" stroke="#000000" stroke-miterlimit="10" cx="207.3" cy="282.5" r="34.7"/>
	<circle fill="#FFFFFF" stroke="#000000" stroke-miterlimit="10" cx="353" cy="282.5" r="34.7"/>
	<circle stroke="#FFFFFF" stroke-miterlimit="10" cx="345.9" cy="287.6" r="13.8"/>
	<circle stroke="#FFFFFF" stroke-miterlimit="10" cx="200.8" cy="287.6" r="13.8"/>
	<path fill="none" stroke="#000000" stroke-miterlimit="10" d="M228.2,226.8c-29.5-11.6-38-6.8-54.8,5"/>
	<path fill="none" stroke="#000000" stroke-miterlimit="10" d="M319.5,227.5c27.4-15.9,36.6-12.3,54.9-3.2"/>
	<path fill="#FFFFFF" d="M336.7,615.2c-1.1-3.4-2.4-6.5-4-9.5c-1.6-3-3.4-5.7-5.5-8.2c-2.1-2.5-4.4-4.8-7-6.8
		c-2.6-2-5.4-3.7-8.4-5.2c-6.1-2.9-13-4.4-20.7-4.4c-3.6,0-7.2,0.3-10.5,1.1c-3.4,0.7-6.6,1.8-9.7,3.2c-3.1,1.4-6,3.1-8.6,5.1
		c-2.6,1.9-5.1,4.2-7.3,6.6c-2.2,2.5-4.2,5.2-6,8.1c-1.7,2.9-3.2,6-4.5,9.4c-2.5,6.7-3.7,13.8-3.7,21.3c0,4,0.4,7.9,1,11.6
		c0.7,3.7,1.7,7.3,3.1,10.6c1.4,3.4,3,6.5,4.9,9.4c1.9,2.9,4,5.6,6.4,7.9c2.4,2.4,4.9,4.5,7.7,6.4c2.8,1.9,5.8,3.5,8.9,4.8
		c6.4,2.6,13.1,4,20.3,4c5,0,9.5-0.4,13.7-1.3c4.2-0.9,8-2.3,11.4-4.1c3.3-1.8,6.5-3.9,9.5-6.2h0c3-2.4,5.8-5,8.4-8l0.9-1l-1-0.9
		l-9.5-8.5l-1-0.9l-0.9,1c-4.1,4.2-8.6,7.6-13.6,10.2c-2.4,1.3-5.1,2.2-8,2.8c-2.9,0.6-6.1,0.9-9.6,0.9c-2.2,0-4.3-0.2-6.3-0.5
		c-2.1-0.4-4.1-0.9-6-1.6v0c-2-0.7-3.9-1.6-5.6-2.7c-1.8-1.1-3.4-2.3-5-3.7c-1.6-1.4-3-2.9-4.3-4.6c-1.3-1.7-2.4-3.6-3.5-5.6
		c-1-2-1.9-4.2-2.5-6.5c-0.5-1.9-0.9-3.8-1.2-5.9h80.6l0.1-1.2c0.1-0.6,0.1-1.2,0.1-1.7c0-0.6,0.1-1.1,0.1-1.5v-2.3
		c0-3.8-0.3-7.5-0.8-11.1C338.6,622.1,337.8,618.6,336.7,615.2 M258.9,628.5c0.3-1.8,0.6-3.6,1.1-5.3c0.6-2.2,1.3-4.3,2.3-6.4
		c0.9-2,2-4,3.1-5.7c1.2-1.8,2.4-3.4,3.8-4.9h0c1.4-1.5,2.9-2.8,4.5-3.9c1.6-1.2,3.3-2.1,5.1-2.9c3.6-1.6,7.5-2.4,11.7-2.4
		c2.4,0,4.7,0.2,6.8,0.7c2.1,0.4,4.1,1.1,5.9,2c1.9,0.9,3.6,1.9,5.1,3.1c1.6,1.2,3,2.5,4.3,4c1.3,1.5,2.5,3.2,3.5,4.9
		c1,1.7,1.9,3.6,2.7,5.6c0.8,2,1.4,4.1,1.9,6.2c0.4,1.6,0.7,3.3,0.9,5H258.9z"/>
	<path fill="#515151" d="M146.5,731.2v8.1c0,18.4,16.9,29.5,37.7,29.5s37.7-11.1,37.7-29.5v-8.1H146.5z"/>
	<path fill="#515151" d="M344.9,731.2v8.1c0,18.4,16.9,29.5,37.7,29.5s37.7-11.1,37.7-29.5v-8.1H344.9z"/>
	<path fill="#F9E1CD" d="M121.1,463.9l-26.2-11c-16.5-8-30.4,2.9-39.9,22.5s-10.9,40.3,5.6,48.3l26.2,11L121.1,463.9z"/>
	<path fill="#F9E1CD" d="M424.8,559.8l14.7,15.8c14.1,13.5,30.7,7.9,45.4-7.4s21.8-34.6,7.7-48.1l-14.8-15.7L424.8,559.8z"/>
	<path fill="#F4971E" d="M479.2,595c0,4.3-5.5,7.8-12.3,7.8l0,0c-6.8,0-12.3-3.5-12.3-7.8v-22.8c0-4.3,5.5-7.8,12.3-7.8l0,0
		c6.8,0,12.3,3.5,12.3,7.8V595z"/>
	<path fill="#F4971E" d="M407.9,685.6v-43.3c0-31.1,25.3-56.5,56.5-56.5h8.2c31.1,0,56.5,25.3,56.5,56.5v43.3H407.9z"/>
	<path opacity="0.24" fill="#FCFCFC" d="M517.7,674.3v-32c0-24.9-20.2-45.2-45.2-45.2h-8.2c-24.9,0-45.2,20.2-45.2,45.2v32H517.7z"
		/>
</g>
<g>
	<path fill="#757575" d="M52.2,384.5c0,0-0.1,0-0.1,0c0.2,0,0.4,0,0.6-0.1L52.2,384.5z"/>
	<path fill="#757575" d="M97.5,404.1c-3.3-9.5-8.4-17.6-16.7-20.1c-0.9-0.3-1.5,0.9-0.8,1.6c2.6,2.5,4,6.5,5.5,11l4.2,13.8
		c0,0.1,0,0.2,0,0.3c0.3,7.7-5.7,14.3-13.4,14.7l-21.2,1.1c-7.8,0.4-14.4-5.5-14.8-13.3c0-0.1,0-0.2,0-0.3l2.8-14.2
		c1.1-4.7,2.1-8.9,4.5-11.6c0.6-0.7-0.1-1.9-1-1.5c-8.1,3.2-12.5,11.9-14.9,21.7l-4.4,22c0,0.1,0,0.2,0,0.3
		c0.7,12,10.9,21.3,23,20.7l0.9,0l4.3,86.9c0.3,6.6,7.7,11.5,16.6,11.1s15.7-6.1,15.4-12.7l-4.3-86c0-0.5,0.3-0.9,0.8-0.9
		c11.6-1,20.4-11,19.9-22.8c0-0.1,0-0.2,0-0.3L97.5,404.1z"/>
</g>
</svg>
